<svg xmlns="http://www.w3.org/2000/svg" xmlns:xlink="http://www.w3.org/1999/xlink" width="500" zoomAndPan="magnify" viewBox="0 0 375 374.999991" height="500" preserveAspectRatio="xMidYMid meet" version="1.0"><defs><g/><clipPath id="46101795f4"><path d="M 112 123 L 149 123 L 149 160 L 112 160 Z M 112 123 " clip-rule="nonzero"/></clipPath><clipPath id="8942d5564c"><path d="M 102.554688 136.445312 L 136.140625 115.183594 L 152.988281 141.800781 L 119.402344 163.058594 Z M 102.554688 136.445312 " clip-rule="nonzero"/></clipPath><clipPath id="336a9def70"><path d="M 102.554688 136.445312 L 136.140625 115.183594 L 152.988281 141.800781 L 119.402344 163.058594 Z M 102.554688 136.445312 " clip-rule="nonzero"/></clipPath></defs><g fill="#000000" fill-opacity="1"><g transform="translate(72.38595, 210.771433)"><g><path d="M 75 -63.3125 C 78.039062 -61.332031 80.25 -58.859375 81.625 -55.890625 C 83.007812 -52.929688 83.453125 -49.800781 82.953125 -46.5 C 82.296875 -42.457031 80.828125 -38.847656 78.546875 -35.671875 C 76.285156 -32.515625 73.6875 -29.691406 70.75 -27.203125 C 68.332031 -25.117188 65.816406 -23.175781 63.203125 -21.375 C 60.585938 -19.582031 57.90625 -17.882812 55.15625 -16.28125 C 51.570312 -14.175781 47.929688 -12.113281 44.234375 -10.09375 C 42.628906 -9.207031 41.023438 -8.328125 39.421875 -7.453125 C 39.347656 -7.378906 39.269531 -7.316406 39.1875 -7.265625 C 38.957031 -7.128906 38.734375 -7.035156 38.515625 -6.984375 C 37.597656 -6.671875 36.96875 -6.21875 36.625 -5.625 C 36.28125 -5.039062 36.101562 -4.363281 36.09375 -3.59375 C 36.082031 -2.832031 36.117188 -2.035156 36.203125 -1.203125 C 36.234375 -0.804688 36.457031 -0.523438 36.875 -0.359375 C 37.3125 -0.203125 37.769531 -0.078125 38.25 0.015625 C 40.320312 0.460938 42.394531 0.890625 44.46875 1.296875 C 47.9375 2.023438 51.421875 2.742188 54.921875 3.453125 C 58.765625 4.242188 62.609375 5.054688 66.453125 5.890625 C 68.785156 6.390625 71.132812 6.890625 73.5 7.390625 C 74.15625 7.546875 74.800781 7.675781 75.4375 7.78125 C 76.164062 7.9375 76.890625 8.09375 77.609375 8.25 C 78.148438 8.332031 78.6875 8.488281 79.21875 8.71875 C 79.375 8.8125 79.507812 8.925781 79.625 9.0625 C 79.738281 9.207031 79.773438 9.390625 79.734375 9.609375 C 79.703125 9.804688 79.628906 9.925781 79.515625 9.96875 C 79.410156 10.007812 79.296875 10.03125 79.171875 10.03125 C 78.722656 10.0625 78.265625 10.035156 77.796875 9.953125 C 75.816406 9.609375 73.832031 9.273438 71.84375 8.953125 C 68.53125 8.441406 65.222656 7.84375 61.921875 7.15625 C 56.585938 6.019531 51.257812 4.898438 45.9375 3.796875 C 44.800781 3.566406 43.65625 3.332031 42.5 3.09375 C 40.789062 2.707031 39.054688 2.378906 37.296875 2.109375 C 36.535156 1.953125 36.15625 2.28125 36.15625 3.09375 C 36.125 3.65625 36.109375 4.207031 36.109375 4.75 C 36.109375 5.03125 36.109375 5.3125 36.109375 5.59375 C 36.015625 14.800781 35.925781 24.015625 35.84375 33.234375 C 35.84375 33.335938 35.84375 33.453125 35.84375 33.578125 C 35.84375 33.921875 35.816406 34.265625 35.765625 34.609375 C 35.710938 35.472656 35.242188 35.835938 34.359375 35.703125 C 33.453125 35.578125 32.945312 35.109375 32.84375 34.296875 C 32.789062 33.878906 32.78125 33.46875 32.8125 33.0625 C 32.8125 32.988281 32.8125 32.941406 32.8125 32.921875 C 32.78125 28.054688 32.726562 23.273438 32.65625 18.578125 C 32.601562 13.828125 32.578125 8.992188 32.578125 4.078125 C 32.578125 3.867188 32.578125 3.632812 32.578125 3.375 C 32.546875 2.957031 32.546875 2.550781 32.578125 2.15625 C 32.597656 1.414062 32.265625 0.890625 31.578125 0.578125 C 31.503906 0.546875 31.425781 0.519531 31.34375 0.5 C 30.800781 0.269531 30.28125 -0.00390625 29.78125 -0.328125 C 28.300781 -1.296875 27.957031 -2.476562 28.75 -3.875 C 29.332031 -4.84375 30.117188 -5.609375 31.109375 -6.171875 C 31.691406 -6.484375 32.085938 -6.894531 32.296875 -7.40625 C 32.503906 -7.914062 32.609375 -8.523438 32.609375 -9.234375 C 32.585938 -17.242188 32.585938 -25.253906 32.609375 -33.265625 C 32.609375 -35.210938 32.609375 -37.164062 32.609375 -39.125 C 32.609375 -39.207031 32.609375 -39.316406 32.609375 -39.453125 C 32.609375 -40.179688 32.625 -40.890625 32.65625 -41.578125 C 32.757812 -42.460938 33.347656 -42.828125 34.421875 -42.671875 C 35.453125 -42.535156 35.984375 -42 36.015625 -41.0625 C 36.015625 -40.488281 36.015625 -39.9375 36.015625 -39.40625 C 36.015625 -39.21875 36.015625 -39.03125 36.015625 -38.84375 C 36.054688 -34.457031 36.078125 -30.085938 36.078125 -25.734375 C 36.078125 -21.421875 36.085938 -17.101562 36.109375 -12.78125 C 36.109375 -12.75 36.109375 -12.722656 36.109375 -12.703125 C 36.109375 -11.972656 36.125 -11.265625 36.15625 -10.578125 C 36.21875 -9.890625 36.582031 -9.664062 37.25 -9.90625 C 37.46875 -10.007812 37.6875 -10.125 37.90625 -10.25 C 37.945312 -10.25 37.96875 -10.25 37.96875 -10.25 C 41.863281 -12.320312 45.722656 -14.472656 49.546875 -16.703125 C 53.378906 -18.941406 57.109375 -21.335938 60.734375 -23.890625 C 63.222656 -25.617188 65.601562 -27.484375 67.875 -29.484375 C 70.144531 -31.492188 72.207031 -33.726562 74.0625 -36.1875 C 76.082031 -38.800781 77.550781 -41.734375 78.46875 -44.984375 C 79.0625 -47.117188 79.21875 -49.367188 78.9375 -51.734375 C 78.4375 -55.328125 76.753906 -58.367188 73.890625 -60.859375 C 72.523438 -62.023438 71.054688 -62.957031 69.484375 -63.65625 C 63.710938 -66.363281 57.9375 -67.75 52.15625 -67.8125 C 46.375 -67.875 40.8125 -66.9375 35.46875 -65 C 30.125 -63.0625 25.234375 -60.421875 20.796875 -57.078125 C 16.359375 -53.742188 12.5625 -50.007812 9.40625 -45.875 C 8.175781 -44.457031 7.101562 -42.914062 6.1875 -41.25 C 5.5625 -40.207031 5.003906 -39.132812 4.515625 -38.03125 C 4.023438 -36.925781 3.703125 -35.726562 3.546875 -34.4375 C 3.515625 -34.125 3.394531 -33.898438 3.1875 -33.765625 C 2.976562 -33.640625 2.734375 -33.597656 2.453125 -33.640625 C 2.078125 -33.640625 1.71875 -33.695312 1.375 -33.8125 C 0.644531 -34.070312 0.265625 -34.582031 0.234375 -35.34375 C 0.203125 -36.34375 0.375 -37.300781 0.75 -38.21875 C 1.976562 -41.625 3.765625 -44.671875 6.109375 -47.359375 C 9.703125 -51.566406 13.9375 -55.363281 18.8125 -58.75 C 23.695312 -62.132812 29 -64.8125 34.71875 -66.78125 C 40.4375 -68.75 46.351562 -69.710938 52.46875 -69.671875 C 58.582031 -69.628906 64.660156 -68.296875 70.703125 -65.671875 C 72.191406 -65.015625 73.625 -64.226562 75 -63.3125 Z M 75 -63.3125 "/></g></g></g><g fill="#000000" fill-opacity="1"><g transform="translate(139.211968, 210.771433)"><g><path d="M 11.140625 -8.71875 C 10.703125 -7.800781 9.945312 -6.785156 8.875 -5.671875 C 7.8125 -4.554688 6.601562 -3.847656 5.25 -3.546875 C 3.894531 -3.242188 2.601562 -3.707031 1.375 -4.9375 C 0.90625 -5.488281 0.554688 -6.117188 0.328125 -6.828125 C 0.109375 -7.535156 0.03125 -8.234375 0.09375 -8.921875 C 0.09375 -9.109375 0.09375 -9.34375 0.09375 -9.625 C 0.09375 -10.351562 0.125 -11.195312 0.1875 -12.15625 C 0.25 -13.113281 0.390625 -13.976562 0.609375 -14.75 C 0.835938 -15.53125 1.1875 -16 1.65625 -16.15625 C 3.019531 -16.5 3.757812 -16.023438 3.875 -14.734375 C 3.875 -14.316406 3.859375 -13.90625 3.828125 -13.5 C 3.796875 -13.28125 3.78125 -13.078125 3.78125 -12.890625 C 3.75 -12.285156 3.722656 -11.6875 3.703125 -11.09375 C 3.703125 -10.613281 3.675781 -10.140625 3.625 -9.671875 C 3.601562 -7.585938 4.070312 -6.347656 5.03125 -5.953125 C 5.988281 -5.566406 7.082031 -5.988281 8.3125 -7.21875 C 9.539062 -8.445312 10.34375 -9.46875 10.71875 -10.28125 C 11.101562 -11.101562 11.378906 -11.273438 11.546875 -10.796875 C 11.722656 -10.328125 11.585938 -9.632812 11.140625 -8.71875 Z M 3.59375 -20.578125 C 3.40625 -20.421875 3.175781 -20.320312 2.90625 -20.28125 C 2.644531 -20.238281 2.414062 -20.257812 2.21875 -20.34375 C 2.0625 -20.476562 1.957031 -20.644531 1.90625 -20.84375 C 1.863281 -21.050781 1.84375 -21.300781 1.84375 -21.59375 C 1.84375 -21.644531 1.859375 -21.703125 1.890625 -21.765625 C 1.921875 -22.023438 1.984375 -22.28125 2.078125 -22.53125 C 2.367188 -23.21875 2.96875 -23.535156 3.875 -23.484375 C 4.1875 -23.441406 4.429688 -23.3125 4.609375 -23.09375 C 4.785156 -22.882812 4.828125 -22.632812 4.734375 -22.34375 C 4.515625 -21.644531 4.132812 -21.054688 3.59375 -20.578125 Z M 3.59375 -20.578125 "/></g></g></g><g fill="#000000" fill-opacity="1"><g transform="translate(149.758923, 210.771433)"><g><path d="M 13.046875 -11.71875 C 13.046875 -11.394531 12.347656 -10.8125 10.953125 -9.96875 C 9.566406 -9.132812 8.539062 -8.503906 7.875 -8.078125 C 7.21875 -7.660156 6.890625 -7.40625 6.890625 -7.3125 C 7.023438 -7.019531 7.160156 -6.535156 7.296875 -5.859375 C 7.441406 -5.191406 7.492188 -4.460938 7.453125 -3.671875 C 7.421875 -2.890625 7.171875 -2.1875 6.703125 -1.5625 C 6.234375 -0.945312 5.445312 -0.578125 4.34375 -0.453125 C 3.238281 -0.367188 2.253906 -0.535156 1.390625 -0.953125 C 0.523438 -1.378906 -0.015625 -1.992188 -0.234375 -2.796875 C -0.460938 -3.597656 -0.195312 -4.535156 0.5625 -5.609375 C 1.0625 -6.210938 1.660156 -6.734375 2.359375 -7.171875 C 2.609375 -7.328125 2.859375 -7.5 3.109375 -7.6875 C 2.265625 -8.601562 1.460938 -9.539062 0.703125 -10.5 C -0.0546875 -11.46875 -0.539062 -12.328125 -0.75 -13.078125 C -0.976562 -13.953125 -0.832031 -14.773438 -0.3125 -15.546875 C 0.207031 -16.328125 1.113281 -16.78125 2.40625 -16.90625 C 3.039062 -16.96875 3.628906 -16.9375 4.171875 -16.8125 C 4.722656 -16.6875 5.238281 -16.414062 5.71875 -16 C 5.8125 -15.90625 5.878906 -15.796875 5.921875 -15.671875 C 5.972656 -15.546875 5.953125 -15.394531 5.859375 -15.21875 C 5.703125 -14.925781 5.46875 -14.78125 5.15625 -14.78125 C 4.925781 -14.78125 4.703125 -14.8125 4.484375 -14.875 C 4.253906 -14.96875 4.050781 -15.054688 3.875 -15.140625 C 3.738281 -15.210938 3.613281 -15.28125 3.5 -15.34375 C 3.082031 -15.5 2.765625 -15.472656 2.546875 -15.265625 C 2.328125 -15.066406 2.21875 -14.765625 2.21875 -14.359375 C 2.238281 -13.617188 2.535156 -12.832031 3.109375 -12 C 3.679688 -11.175781 4.25 -10.414062 4.8125 -9.71875 C 5.039062 -9.46875 5.234375 -9.226562 5.390625 -9 C 5.546875 -8.84375 5.960938 -8.867188 6.640625 -9.078125 C 7.316406 -9.285156 8.550781 -9.859375 10.34375 -10.796875 C 12.144531 -11.742188 13.046875 -12.050781 13.046875 -11.71875 Z M 3.4375 -2.0625 C 3.851562 -2.09375 4.125 -2.320312 4.25 -2.75 C 4.382812 -3.175781 4.429688 -3.644531 4.390625 -4.15625 C 4.359375 -4.675781 4.328125 -5.066406 4.296875 -5.328125 C 4.242188 -5.484375 4.144531 -5.582031 4 -5.625 C 3.851562 -5.664062 3.71875 -5.660156 3.59375 -5.609375 C 3.113281 -5.234375 2.765625 -4.757812 2.546875 -4.1875 C 2.328125 -3.613281 2.34375 -3.113281 2.59375 -2.6875 C 2.6875 -2.53125 2.800781 -2.394531 2.9375 -2.28125 C 3.082031 -2.164062 3.25 -2.09375 3.4375 -2.0625 Z M 3.4375 -2.0625 "/></g></g></g><g fill="#000000" fill-opacity="1"><g transform="translate(161.336944, 210.771433)"><g><path d="M 15.765625 -10.328125 C 16.554688 -11.085938 16.894531 -11.273438 16.78125 -10.890625 C 16.675781 -10.515625 16.242188 -9.828125 15.484375 -8.828125 C 14.734375 -7.835938 13.789062 -6.765625 12.65625 -5.609375 C 11.519531 -4.453125 10.320312 -3.445312 9.0625 -2.59375 C 7.800781 -1.738281 6.609375 -1.273438 5.484375 -1.203125 C 4.085938 -1.203125 2.96875 -1.613281 2.125 -2.4375 C 1.289062 -3.257812 0.695312 -4.347656 0.34375 -5.703125 C -0.0078125 -7.054688 -0.160156 -8.519531 -0.109375 -10.09375 C -0.0351562 -11.851562 0.03125 -13.617188 0.09375 -15.390625 C 0.113281 -16.273438 0.140625 -17.140625 0.171875 -17.984375 C 0.242188 -19.398438 0.296875 -20.816406 0.328125 -22.234375 C 0.347656 -22.679688 0.269531 -23.054688 0.09375 -23.359375 C -0.0703125 -23.660156 -0.375 -23.820312 -0.8125 -23.84375 C -1.3125 -23.875 -1.941406 -23.890625 -2.703125 -23.890625 C -3.367188 -23.890625 -3.9375 -23.890625 -4.40625 -23.890625 C -5.0625 -23.960938 -5.5 -24.140625 -5.71875 -24.421875 C -5.945312 -24.703125 -5.773438 -24.984375 -5.203125 -25.265625 C -4.796875 -25.421875 -4.3125 -25.503906 -3.75 -25.515625 C -3.1875 -25.535156 -2.628906 -25.53125 -2.078125 -25.5 C -1.734375 -25.46875 -1.4375 -25.453125 -1.1875 -25.453125 C -0.332031 -25.453125 0.179688 -25.582031 0.359375 -25.84375 C 0.546875 -26.113281 0.660156 -26.644531 0.703125 -27.4375 C 0.765625 -28.269531 0.8125 -29.109375 0.84375 -29.953125 C 0.863281 -30.390625 0.898438 -30.832031 0.953125 -31.28125 C 0.953125 -31.9375 1.125 -32.53125 1.46875 -33.0625 C 1.832031 -33.5625 2.300781 -33.753906 2.875 -33.640625 C 3.375 -33.515625 3.65625 -33.203125 3.71875 -32.703125 C 3.757812 -31.867188 3.78125 -31.03125 3.78125 -30.1875 C 3.8125 -29.71875 3.8125 -29.242188 3.78125 -28.765625 C 3.78125 -28.265625 3.796875 -27.742188 3.828125 -27.203125 C 3.796875 -26.453125 3.878906 -25.976562 4.078125 -25.78125 C 4.285156 -25.59375 4.78125 -25.5 5.5625 -25.5 C 6.851562 -25.5 8.128906 -25.5 9.390625 -25.5 C 9.960938 -25.5 11.664062 -25.535156 14.5 -25.609375 C 17.332031 -25.691406 18.859375 -25.460938 19.078125 -24.921875 C 19.304688 -24.390625 17.515625 -24.082031 13.703125 -24 C 11.398438 -23.875 9.617188 -23.8125 8.359375 -23.8125 C 7.515625 -23.832031 6.753906 -23.84375 6.078125 -23.84375 C 4.953125 -23.84375 4.253906 -23.644531 3.984375 -23.25 C 3.722656 -22.863281 3.601562 -22.078125 3.625 -20.890625 C 3.601562 -19.867188 3.554688 -18.632812 3.484375 -17.1875 C 3.296875 -14.21875 3.203125 -11.195312 3.203125 -8.125 C 3.273438 -6 3.65625 -4.617188 4.34375 -3.984375 C 5.03125 -3.359375 5.925781 -3.242188 7.03125 -3.640625 C 8.132812 -4.035156 9.328125 -4.738281 10.609375 -5.75 C 11.890625 -6.757812 13.160156 -7.84375 14.421875 -9 C 14.691406 -9.363281 15.019531 -9.703125 15.40625 -10.015625 C 15.53125 -10.128906 15.648438 -10.234375 15.765625 -10.328125 Z M 15.765625 -10.328125 "/></g></g></g><g fill="#000000" fill-opacity="1"><g transform="translate(176.824427, 210.771433)"><g><path d="M 16.5 -11.75 C 16.71875 -11.96875 16.832031 -11.707031 16.84375 -10.96875 C 16.851562 -10.226562 16.179688 -9.195312 14.828125 -7.875 C 13.484375 -6.550781 12.085938 -5.925781 10.640625 -6 C 10.316406 -6.019531 10.046875 -5.988281 9.828125 -5.90625 C 9.609375 -5.832031 9.421875 -5.65625 9.265625 -5.375 C 9.109375 -5.113281 8.921875 -4.875 8.703125 -4.65625 C 8.703125 -4.65625 8.6875 -4.644531 8.65625 -4.625 C 7.769531 -3.675781 6.726562 -3.050781 5.53125 -2.75 C 4.332031 -2.445312 3.195312 -2.539062 2.125 -3.03125 C 1.050781 -3.519531 0.28125 -4.441406 -0.1875 -5.796875 C -0.53125 -7.035156 -0.5625 -8.257812 -0.28125 -9.46875 C -0.03125 -10.550781 0.363281 -11.5625 0.90625 -12.5 C 1.5625 -13.757812 2.414062 -14.648438 3.46875 -15.171875 C 4.519531 -15.703125 5.710938 -15.992188 7.046875 -16.046875 C 9.023438 -16.148438 10.269531 -15.21875 10.78125 -13.25 C 11.101562 -12.125 11.179688 -10.976562 11.015625 -9.8125 C 10.972656 -9.5625 10.925781 -9.289062 10.875 -9 C 10.8125 -8.8125 10.757812 -8.625 10.71875 -8.4375 C 10.664062 -7.8125 10.9375 -7.523438 11.53125 -7.578125 C 13.195312 -7.867188 14.851562 -9.257812 16.5 -11.75 Z M 4.8125 -4.421875 C 5.832031 -4.898438 6.539062 -5.703125 6.9375 -6.828125 C 5.25 -7.898438 4.117188 -9.445312 3.546875 -11.46875 C 3.015625 -10.53125 2.691406 -9.429688 2.578125 -8.171875 C 2.460938 -6.910156 2.585938 -5.863281 2.953125 -5.03125 C 3.316406 -4.207031 3.9375 -4.003906 4.8125 -4.421875 Z M 7.71875 -9.0625 C 7.988281 -9.46875 8.144531 -9.960938 8.1875 -10.546875 C 8.238281 -11.140625 8.210938 -11.722656 8.109375 -12.296875 C 8.003906 -12.878906 7.851562 -13.332031 7.65625 -13.65625 C 7.46875 -13.988281 7.265625 -14.09375 7.046875 -13.96875 C 6.660156 -13.625 6.445312 -13.128906 6.40625 -12.484375 C 6.363281 -11.835938 6.457031 -11.191406 6.6875 -10.546875 C 6.925781 -9.898438 7.269531 -9.40625 7.71875 -9.0625 Z M 7.71875 -9.0625 "/></g></g></g><g fill="#000000" fill-opacity="1"><g transform="translate(192.827444, 210.771433)"><g><path d="M 13.703125 -10.296875 C 13.972656 -10.847656 14.160156 -11.101562 14.265625 -11.0625 C 14.367188 -11.019531 14.394531 -10.796875 14.34375 -10.390625 C 14.289062 -9.984375 14.203125 -9.519531 14.078125 -9 C 13.890625 -8.21875 13.566406 -7.304688 13.109375 -6.265625 C 12.648438 -5.222656 12.140625 -4.28125 11.578125 -3.4375 C 10.742188 -2.257812 9.710938 -1.375 8.484375 -0.78125 C 7.265625 -0.1875 6.15625 -0.0390625 5.15625 -0.34375 C 4.164062 -0.644531 3.59375 -1.582031 3.4375 -3.15625 C 3.40625 -4.476562 3.519531 -5.925781 3.78125 -7.5 C 3.863281 -8.15625 3.957031 -8.800781 4.0625 -9.4375 C 4.0625 -9.664062 4.003906 -9.835938 3.890625 -9.953125 C 3.773438 -10.078125 3.625 -10.125 3.4375 -10.09375 C 3.3125 -10.09375 3.171875 -10.09375 3.015625 -10.09375 C 2.222656 -9.96875 1.421875 -9.984375 0.609375 -10.140625 C -0.367188 -10.429688 -0.9375 -10.914062 -1.09375 -11.59375 C -1.25 -12.269531 -1.234375 -13.160156 -1.046875 -14.265625 C -0.953125 -15.054688 -0.660156 -15.644531 -0.171875 -16.03125 C 0.316406 -16.425781 0.890625 -16.585938 1.546875 -16.515625 C 2.460938 -16.429688 2.90625 -16.082031 2.875 -15.46875 C 2.851562 -14.851562 2.679688 -14.195312 2.359375 -13.5 C 2.078125 -12.90625 1.925781 -12.410156 1.90625 -12.015625 C 1.894531 -11.628906 2.234375 -11.492188 2.921875 -11.609375 C 3.078125 -11.648438 3.25 -11.695312 3.4375 -11.75 C 3.695312 -11.851562 3.988281 -11.941406 4.3125 -12.015625 C 4.644531 -12.097656 5.078125 -12.117188 5.609375 -12.078125 C 6.234375 -12.046875 6.648438 -11.753906 6.859375 -11.203125 C 7.066406 -10.648438 7.15625 -9.957031 7.125 -9.125 C 7.101562 -8.300781 7.023438 -7.457031 6.890625 -6.59375 C 6.734375 -5.519531 6.65625 -4.597656 6.65625 -3.828125 C 6.65625 -3.066406 6.878906 -2.625 7.328125 -2.5 C 7.910156 -2.332031 8.785156 -2.863281 9.953125 -4.09375 C 11.117188 -5.320312 12.367188 -7.390625 13.703125 -10.296875 Z M 13.703125 -10.296875 "/></g></g></g><g fill="#000000" fill-opacity="1"><g transform="translate(205.973546, 210.771433)"><g><path d="M 24.3125 -11.03125 C 23.914062 -9.832031 23.132812 -8.457031 21.96875 -6.90625 C 20.800781 -5.351562 19.34375 -4.351562 17.59375 -3.90625 C 15.84375 -3.46875 14.332031 -3.53125 13.0625 -4.09375 C 11.789062 -4.65625 11.085938 -6.171875 10.953125 -8.640625 C 9.503906 -5.828125 8.125 -4.023438 6.8125 -3.234375 C 5.507812 -2.453125 4.148438 -2.15625 2.734375 -2.34375 C 1.128906 -2.601562 0.046875 -3.222656 -0.515625 -4.203125 C -1.085938 -5.191406 -1.28125 -6.332031 -1.09375 -7.625 C -0.90625 -8.925781 -0.507812 -10.171875 0.09375 -11.359375 C 0.5625 -12.253906 1.210938 -13.078125 2.046875 -13.828125 C 2.890625 -14.585938 3.769531 -15.1875 4.6875 -15.625 C 5.8125 -16.195312 6.945312 -16.46875 8.09375 -16.4375 C 9.238281 -16.40625 10.46875 -16.023438 11.78125 -15.296875 C 11.800781 -15.265625 11.8125 -15.296875 11.8125 -15.390625 C 11.8125 -15.515625 11.84375 -15.671875 11.90625 -15.859375 C 11.976562 -16.054688 12.09375 -16.210938 12.25 -16.328125 C 12.675781 -16.640625 13.179688 -16.796875 13.765625 -16.796875 C 14.359375 -16.796875 14.8125 -16.503906 15.125 -15.921875 C 15.1875 -15.160156 15.109375 -14.191406 14.890625 -13.015625 C 14.421875 -10.441406 14.421875 -8.585938 14.890625 -7.453125 C 15.359375 -6.328125 16.191406 -5.800781 17.390625 -5.875 C 18.585938 -5.957031 20.140625 -7.140625 22.046875 -9.421875 C 23.953125 -11.703125 24.707031 -12.238281 24.3125 -11.03125 Z M 3.15625 -4.984375 C 3.8125 -4.515625 4.566406 -4.578125 5.421875 -5.171875 C 6.273438 -5.773438 7.09375 -6.628906 7.875 -7.734375 C 8.664062 -8.835938 9.328125 -9.941406 9.859375 -11.046875 C 10.398438 -12.148438 10.703125 -12.96875 10.765625 -13.5 C 9.160156 -14.351562 7.785156 -14.492188 6.640625 -13.921875 C 5.492188 -13.359375 4.578125 -12.4375 3.890625 -11.15625 C 3.210938 -9.875 2.8125 -8.628906 2.6875 -7.421875 C 2.5625 -6.210938 2.71875 -5.398438 3.15625 -4.984375 Z M 3.15625 -4.984375 "/></g></g></g><g fill="#000000" fill-opacity="1"><g transform="translate(228.742938, 210.771433)"><g><path d="M 17.765625 -8.265625 C 18.867188 -10.015625 19.523438 -11.125 19.734375 -11.59375 C 19.941406 -12.070312 20.101562 -12.050781 20.21875 -11.53125 C 20.34375 -11.019531 19.988281 -9.859375 19.15625 -8.046875 C 18.332031 -6.234375 17.300781 -4.835938 16.0625 -3.859375 C 14.832031 -2.878906 13.679688 -2.515625 12.609375 -2.765625 C 11.546875 -3.023438 10.785156 -3.765625 10.328125 -4.984375 C 9.867188 -6.210938 9.734375 -7.757812 9.921875 -9.625 C 9.921875 -9.65625 9.9375 -9.734375 9.96875 -9.859375 C 10 -10.171875 10.050781 -10.632812 10.125 -11.25 C 10.207031 -11.875 10.265625 -12.515625 10.296875 -13.171875 C 10.335938 -13.828125 10.316406 -14.367188 10.234375 -14.796875 C 10.160156 -15.234375 9.960938 -15.382812 9.640625 -15.25 C 8.890625 -14.832031 8.148438 -14.019531 7.421875 -12.8125 C 6.703125 -11.601562 6.046875 -10.335938 5.453125 -9.015625 C 4.867188 -7.691406 4.457031 -6.617188 4.21875 -5.796875 C 4.113281 -5.546875 4.019531 -5.273438 3.9375 -4.984375 C 3.800781 -4.609375 3.65625 -4.238281 3.5 -3.875 C 3.082031 -2.789062 2.359375 -2.375 1.328125 -2.625 C 0.753906 -2.75 0.421875 -3.097656 0.328125 -3.671875 C 0.296875 -4.117188 0.28125 -4.539062 0.28125 -4.9375 C 0.28125 -5.195312 0.265625 -5.4375 0.234375 -5.65625 C 0.179688 -8.832031 0.101562 -12.03125 0 -15.25 C 0.03125 -15.625 0.195312 -15.882812 0.5 -16.03125 C 0.800781 -16.175781 1.15625 -16.25 1.5625 -16.25 C 1.882812 -16.25 2.179688 -16.160156 2.453125 -15.984375 C 2.734375 -15.816406 2.910156 -15.457031 2.984375 -14.90625 C 3.015625 -14.71875 3.03125 -14.535156 3.03125 -14.359375 C 3.0625 -14.253906 3.078125 -14.160156 3.078125 -14.078125 C 3.128906 -13.628906 3.15625 -13.25 3.15625 -12.9375 C 3.15625 -12.457031 3.1875 -12.128906 3.25 -11.953125 C 3.320312 -11.785156 3.457031 -11.796875 3.65625 -11.984375 C 3.863281 -12.171875 4.207031 -12.617188 4.6875 -13.328125 C 5.5 -14.585938 6.507812 -15.648438 7.71875 -16.515625 C 8.820312 -17.304688 10.03125 -17.640625 11.34375 -17.515625 C 12.476562 -17.398438 13.238281 -16.804688 13.625 -15.734375 C 13.78125 -15.179688 13.859375 -14.628906 13.859375 -14.078125 C 13.859375 -13.523438 13.820312 -12.972656 13.75 -12.421875 C 13.71875 -11.847656 13.675781 -11.257812 13.625 -10.65625 C 13.582031 -10.46875 13.546875 -10.28125 13.515625 -10.09375 C 13.328125 -8.050781 13.390625 -6.679688 13.703125 -5.984375 C 14.023438 -5.285156 14.503906 -5.054688 15.140625 -5.296875 C 15.785156 -5.535156 16.660156 -6.523438 17.765625 -8.265625 Z M 17.765625 -8.265625 "/></g></g></g><g fill="#000000" fill-opacity="1"><g transform="translate(247.64583, 210.771433)"><g><path d="M 15.765625 -10.328125 C 16.554688 -11.085938 16.894531 -11.273438 16.78125 -10.890625 C 16.675781 -10.515625 16.242188 -9.828125 15.484375 -8.828125 C 14.734375 -7.835938 13.789062 -6.765625 12.65625 -5.609375 C 11.519531 -4.453125 10.320312 -3.445312 9.0625 -2.59375 C 7.800781 -1.738281 6.609375 -1.273438 5.484375 -1.203125 C 4.085938 -1.203125 2.96875 -1.613281 2.125 -2.4375 C 1.289062 -3.257812 0.695312 -4.347656 0.34375 -5.703125 C -0.0078125 -7.054688 -0.160156 -8.519531 -0.109375 -10.09375 C -0.0351562 -11.851562 0.03125 -13.617188 0.09375 -15.390625 C 0.113281 -16.273438 0.140625 -17.140625 0.171875 -17.984375 C 0.242188 -19.398438 0.296875 -20.816406 0.328125 -22.234375 C 0.347656 -22.679688 0.269531 -23.054688 0.09375 -23.359375 C -0.0703125 -23.660156 -0.375 -23.820312 -0.8125 -23.84375 C -1.3125 -23.875 -1.941406 -23.890625 -2.703125 -23.890625 C -3.367188 -23.890625 -3.9375 -23.890625 -4.40625 -23.890625 C -5.0625 -23.960938 -5.5 -24.140625 -5.71875 -24.421875 C -5.945312 -24.703125 -5.773438 -24.984375 -5.203125 -25.265625 C -4.796875 -25.421875 -4.3125 -25.503906 -3.75 -25.515625 C -3.1875 -25.535156 -2.628906 -25.53125 -2.078125 -25.5 C -1.734375 -25.46875 -1.4375 -25.453125 -1.1875 -25.453125 C -0.332031 -25.453125 0.179688 -25.582031 0.359375 -25.84375 C 0.546875 -26.113281 0.660156 -26.644531 0.703125 -27.4375 C 0.765625 -28.269531 0.8125 -29.109375 0.84375 -29.953125 C 0.863281 -30.390625 0.898438 -30.832031 0.953125 -31.28125 C 0.953125 -31.9375 1.125 -32.53125 1.46875 -33.0625 C 1.832031 -33.5625 2.300781 -33.753906 2.875 -33.640625 C 3.375 -33.515625 3.65625 -33.203125 3.71875 -32.703125 C 3.757812 -31.867188 3.78125 -31.03125 3.78125 -30.1875 C 3.8125 -29.71875 3.8125 -29.242188 3.78125 -28.765625 C 3.78125 -28.265625 3.796875 -27.742188 3.828125 -27.203125 C 3.796875 -26.453125 3.878906 -25.976562 4.078125 -25.78125 C 4.285156 -25.59375 4.78125 -25.5 5.5625 -25.5 C 6.851562 -25.5 8.128906 -25.5 9.390625 -25.5 C 9.960938 -25.5 11.664062 -25.535156 14.5 -25.609375 C 17.332031 -25.691406 18.859375 -25.460938 19.078125 -24.921875 C 19.304688 -24.390625 17.515625 -24.082031 13.703125 -24 C 11.398438 -23.875 9.617188 -23.8125 8.359375 -23.8125 C 7.515625 -23.832031 6.753906 -23.84375 6.078125 -23.84375 C 4.953125 -23.84375 4.253906 -23.644531 3.984375 -23.25 C 3.722656 -22.863281 3.601562 -22.078125 3.625 -20.890625 C 3.601562 -19.867188 3.554688 -18.632812 3.484375 -17.1875 C 3.296875 -14.21875 3.203125 -11.195312 3.203125 -8.125 C 3.273438 -6 3.65625 -4.617188 4.34375 -3.984375 C 5.03125 -3.359375 5.925781 -3.242188 7.03125 -3.640625 C 8.132812 -4.035156 9.328125 -4.738281 10.609375 -5.75 C 11.890625 -6.757812 13.160156 -7.84375 14.421875 -9 C 14.691406 -9.363281 15.019531 -9.703125 15.40625 -10.015625 C 15.53125 -10.128906 15.648438 -10.234375 15.765625 -10.328125 Z M 15.765625 -10.328125 "/></g></g></g><g fill="#000000" fill-opacity="1"><g transform="translate(263.133313, 210.771433)"><g><path d="M 20.71875 -10.375 C 21.03125 -10.5625 21.335938 -10.703125 21.640625 -10.796875 C 21.941406 -10.898438 22.132812 -10.894531 22.21875 -10.78125 C 22.3125 -10.664062 22.1875 -10.410156 21.84375 -10.015625 C 20.769531 -8.785156 19.484375 -7.65625 17.984375 -6.625 C 16.492188 -5.601562 14.960938 -4.742188 13.390625 -4.046875 C 12.148438 -3.484375 10.847656 -3.035156 9.484375 -2.703125 C 8.117188 -2.378906 6.765625 -2.304688 5.421875 -2.484375 C 4.085938 -2.671875 2.867188 -3.269531 1.765625 -4.28125 C 0.0859375 -5.820312 -0.609375 -7.710938 -0.328125 -9.953125 C -0.078125 -11.722656 0.613281 -13.226562 1.75 -14.46875 C 2.882812 -15.707031 4.320312 -16.550781 6.0625 -17 C 7.507812 -17.3125 8.957031 -17.347656 10.40625 -17.109375 C 11.0625 -17.003906 11.660156 -16.78125 12.203125 -16.4375 C 12.703125 -16.050781 12.976562 -15.597656 13.03125 -15.078125 C 13.082031 -14.566406 12.882812 -14.070312 12.4375 -13.59375 C 11.519531 -12.78125 10.460938 -12.296875 9.265625 -12.140625 C 7.910156 -11.910156 6.554688 -11.765625 5.203125 -11.703125 C 4.546875 -11.703125 4.082031 -11.566406 3.8125 -11.296875 C 3.550781 -11.023438 3.398438 -10.5625 3.359375 -9.90625 C 3.140625 -8.113281 3.710938 -6.648438 5.078125 -5.515625 C 5.921875 -4.847656 6.945312 -4.5625 8.15625 -4.65625 C 9.363281 -4.757812 10.644531 -5.085938 12 -5.640625 C 13.363281 -6.191406 14.695312 -6.835938 16 -7.578125 C 17.3125 -8.316406 18.488281 -9.015625 19.53125 -9.671875 C 19.976562 -9.953125 20.375 -10.1875 20.71875 -10.375 Z M 5.78125 -14.203125 C 5.78125 -14.171875 5.757812 -14.15625 5.71875 -14.15625 C 5.65625 -14.101562 5.578125 -14.035156 5.484375 -13.953125 C 5.390625 -13.878906 5.300781 -13.800781 5.21875 -13.71875 C 5.144531 -13.632812 5.109375 -13.582031 5.109375 -13.5625 C 5.140625 -13.457031 5.398438 -13.429688 5.890625 -13.484375 C 6.378906 -13.535156 6.914062 -13.617188 7.5 -13.734375 C 8.082031 -13.859375 8.570312 -14.023438 8.96875 -14.234375 C 9.363281 -14.441406 9.484375 -14.6875 9.328125 -14.96875 C 9.253906 -15.0625 9.160156 -15.140625 9.046875 -15.203125 C 8.941406 -15.265625 8.828125 -15.3125 8.703125 -15.34375 C 8.128906 -15.34375 7.601562 -15.226562 7.125 -15 C 6.65625 -14.78125 6.207031 -14.515625 5.78125 -14.203125 Z M 5.78125 -14.203125 "/></g></g></g><g clip-path="url(#46101795f4)"><g clip-path="url(#8942d5564c)"><g clip-path="url(#336a9def70)"><path fill="#000000" d="M 132.363281 126.398438 C 132.34375 126.414062 132.320312 126.410156 132.304688 126.394531 C 131.3125 125.121094 129.984375 124.109375 128.429688 123.632812 C 125.214844 122.648438 121.464844 124.464844 120.515625 127.792969 C 120.507812 127.8125 120.492188 127.824219 120.46875 127.828125 C 120.191406 127.835938 119.914062 127.84375 119.640625 127.851562 C 116.964844 127.929688 114.109375 129.253906 112.859375 131.707031 C 111.652344 134.082031 112.21875 136.75 114.367188 138.390625 C 114.386719 138.410156 114.386719 138.421875 114.359375 138.429688 C 111.6875 139.53125 111.496094 142.054688 113.394531 144.039062 C 113.414062 144.054688 113.414062 144.078125 113.398438 144.09375 C 111.222656 147.445312 112.574219 152.269531 116.660156 153.28125 C 118.792969 153.808594 120.757812 152.996094 122.203125 151.394531 C 122.207031 151.394531 122.210938 151.390625 122.210938 151.386719 C 122.226562 151.382812 122.238281 151.390625 122.242188 151.402344 C 123.238281 154.117188 124.054688 156.867188 124.609375 159.710938 C 124.613281 159.738281 124.625 159.742188 124.644531 159.71875 C 125.445312 158.683594 126.210938 157.789062 126.949219 157.035156 C 131.242188 152.652344 136.25 149.234375 141.964844 146.789062 C 144.066406 145.894531 146.152344 145.214844 148.21875 144.757812 C 148.246094 144.75 148.246094 144.738281 148.226562 144.726562 C 145.824219 142.945312 143.730469 141.042969 141.613281 138.910156 C 141.59375 138.890625 141.59375 138.878906 141.617188 138.871094 C 141.996094 138.699219 142.363281 138.507812 142.714844 138.296875 C 145.972656 136.351562 146.675781 132.292969 144.867188 129.128906 C 142.320312 124.675781 136.535156 123.035156 132.363281 126.398438 Z M 143.507812 129.886719 C 144.71875 131.953125 144.714844 134.707031 143.160156 136.625 C 141.449219 138.730469 138.902344 138.933594 136.5625 139.816406 C 132.117188 141.492188 128.222656 144.011719 124.875 147.378906 C 124.070312 148.1875 123.355469 149.039062 122.589844 149.960938 C 122.007812 150.65625 121.25 151.320312 120.40625 151.714844 C 118.242188 152.726562 115.707031 151.953125 114.464844 149.910156 C 113.46875 148.269531 113.539062 146.511719 114.09375 144.726562 C 114.101562 144.703125 114.117188 144.699219 114.136719 144.714844 C 116.378906 146.359375 119.390625 146.90625 122.023438 145.9375 C 122.03125 145.9375 122.035156 145.929688 122.035156 145.921875 C 122.035156 145.914062 122.027344 145.910156 122.019531 145.914062 C 120.203125 145.984375 118.238281 145.699219 116.609375 144.859375 C 115.222656 144.144531 113.839844 142.84375 114.15625 141.167969 C 114.34375 140.183594 114.890625 139.722656 115.664062 139.167969 C 115.683594 139.152344 115.703125 139.152344 115.722656 139.160156 C 118.152344 139.960938 120.59375 139.425781 122.511719 137.707031 C 122.613281 137.613281 122.597656 137.589844 122.46875 137.632812 C 120.996094 138.105469 119.359375 138.351562 117.820312 138.179688 C 115.882812 137.96875 113.695312 136.777344 113.710938 134.527344 C 113.71875 133.664062 113.96875 132.875 114.457031 132.171875 C 115.921875 130.058594 118.828125 129.328125 121.253906 129.535156 C 124.335938 129.796875 127.109375 131.242188 129.382812 133.308594 C 129.390625 133.316406 129.402344 133.316406 129.414062 133.308594 C 129.429688 133.300781 129.433594 133.285156 129.425781 133.269531 C 127.785156 130.453125 124.988281 128.445312 121.738281 127.941406 C 121.734375 127.941406 121.730469 127.941406 121.726562 127.9375 C 121.710938 127.929688 121.703125 127.910156 121.710938 127.894531 C 122.742188 126.101562 124.695312 125.148438 126.742188 125.296875 C 130.828125 125.59375 133.5625 129.425781 134.78125 132.9375 C 134.78125 132.945312 134.789062 132.949219 134.796875 132.949219 C 134.804688 132.949219 134.8125 132.941406 134.8125 132.933594 C 134.660156 130.785156 133.980469 128.8125 132.777344 127.015625 C 132.769531 126.996094 132.769531 126.984375 132.785156 126.972656 C 136.542969 124.558594 141.359375 126.242188 143.507812 129.886719 Z M 143.507812 129.886719 " fill-opacity="1" fill-rule="nonzero"/></g></g></g><g fill="#000000" fill-opacity="1"><g transform="translate(163.658446, 230.078994)"><g><path d="M 2.515625 0 L 1.109375 0 L 1.109375 -8.40625 L 2.515625 -8.40625 Z M 2.515625 0 "/></g></g></g><g fill="#000000" fill-opacity="1"><g transform="translate(169.046546, 230.078994)"><g><path d="M 2.515625 -1.28125 L 6.15625 -1.28125 L 6.15625 0 L 1.109375 0 L 1.109375 -8.40625 L 2.515625 -8.40625 Z M 2.515625 -1.28125 "/></g></g></g><g fill="#000000" fill-opacity="1"><g transform="translate(177.21865, 230.078994)"><g/></g></g><g fill="#000000" fill-opacity="1"><g transform="translate(182.078742, 230.078994)"><g><path d="M 4.828125 -8.4375 C 5.421875 -8.4375 6 -8.320312 6.5625 -8.09375 C 7.125 -7.863281 7.609375 -7.546875 8.015625 -7.140625 L 7.1875 -6.109375 C 6.882812 -6.429688 6.523438 -6.6875 6.109375 -6.875 C 5.691406 -7.070312 5.269531 -7.171875 4.84375 -7.171875 C 4.007812 -7.171875 3.300781 -6.882812 2.71875 -6.3125 C 2.132812 -5.738281 1.84375 -5.039062 1.84375 -4.21875 C 1.84375 -3.382812 2.132812 -2.679688 2.71875 -2.109375 C 3.300781 -1.546875 4.007812 -1.265625 4.84375 -1.265625 C 5.71875 -1.265625 6.5 -1.59375 7.1875 -2.25 L 8.03125 -1.3125 C 7.59375 -0.894531 7.085938 -0.5625 6.515625 -0.3125 C 5.941406 -0.0625 5.363281 0.0625 4.78125 0.0625 C 3.539062 0.0625 2.5 -0.347656 1.65625 -1.171875 C 0.820312 -1.992188 0.40625 -3.007812 0.40625 -4.21875 C 0.40625 -5.40625 0.832031 -6.40625 1.6875 -7.21875 C 2.539062 -8.03125 3.585938 -8.4375 4.828125 -8.4375 Z M 4.828125 -8.4375 "/></g></g></g><g fill="#000000" fill-opacity="1"><g transform="translate(192.206847, 230.078994)"><g><path d="M 6.53125 -1.890625 L 2.296875 -1.890625 L 1.484375 0 L 0.015625 0 L 3.71875 -8.40625 L 5.171875 -8.40625 L 8.84375 0 L 7.328125 0 Z M 5.984375 -3.15625 L 4.40625 -6.890625 L 2.8125 -3.15625 Z M 5.984375 -3.15625 "/></g></g></g><g fill="#000000" fill-opacity="1"><g transform="translate(202.826958, 230.078994)"><g><path d="M 1.109375 -8.40625 L 4.453125 -8.40625 C 5.503906 -8.40625 6.320312 -8.15625 6.90625 -7.65625 C 7.488281 -7.15625 7.78125 -6.445312 7.78125 -5.53125 C 7.78125 -4.582031 7.488281 -3.84375 6.90625 -3.3125 C 6.320312 -2.789062 5.503906 -2.53125 4.453125 -2.53125 L 2.515625 -2.53125 L 2.515625 0 L 1.109375 0 Z M 2.515625 -7.125 L 2.515625 -3.796875 L 4.390625 -3.796875 C 5.742188 -3.796875 6.421875 -4.363281 6.421875 -5.5 C 6.421875 -6.582031 5.742188 -7.125 4.390625 -7.125 Z M 2.515625 -7.125 "/></g></g></g><g fill="#000000" fill-opacity="1"><g transform="translate(212.667062, 230.078994)"><g><path d="M 1.6875 -7.21875 C 2.539062 -8.03125 3.597656 -8.4375 4.859375 -8.4375 C 6.117188 -8.4375 7.175781 -8.03125 8.03125 -7.21875 C 8.882812 -6.40625 9.3125 -5.398438 9.3125 -4.203125 C 9.3125 -3.003906 8.882812 -1.992188 8.03125 -1.171875 C 7.175781 -0.347656 6.117188 0.0625 4.859375 0.0625 C 3.597656 0.0625 2.539062 -0.347656 1.6875 -1.171875 C 0.832031 -1.992188 0.40625 -3.003906 0.40625 -4.203125 C 0.40625 -5.398438 0.832031 -6.40625 1.6875 -7.21875 Z M 4.875 -7.15625 C 4.039062 -7.15625 3.328125 -6.867188 2.734375 -6.296875 C 2.140625 -5.734375 1.84375 -5.035156 1.84375 -4.203125 C 1.84375 -3.367188 2.140625 -2.660156 2.734375 -2.078125 C 3.335938 -1.503906 4.050781 -1.21875 4.875 -1.21875 C 5.695312 -1.21875 6.398438 -1.503906 6.984375 -2.078125 C 7.566406 -2.660156 7.859375 -3.367188 7.859375 -4.203125 C 7.859375 -5.035156 7.566406 -5.734375 6.984375 -6.296875 C 6.398438 -6.867188 5.695312 -7.15625 4.875 -7.15625 Z M 4.875 -7.15625 "/></g></g></g></svg>